<?xml version="1.0" encoding="UTF-8"?>
<!DOCTYPE svg PUBLIC "-//W3C//DTD SVG 1.1//EN" "http://www.w3.org/Graphics/SVG/1.1/DTD/svg11.dtd">
<!-- Creator: CorelDRAW 2020 (64-Bit 评估版) -->
<svg xmlns="http://www.w3.org/2000/svg" xml:space="preserve" width="100.895mm" height="100.894mm" version="1.1" style="shape-rendering:geometricPrecision; text-rendering:geometricPrecision; image-rendering:optimizeQuality; fill-rule:evenodd; clip-rule:evenodd"
viewBox="0 0 1197.01 1197.01"
 xmlns:xlink="http://www.w3.org/1999/xlink"
 xmlns:xodm="http://www.corel.com/coreldraw/odm/2003">
 <defs>
  <style type="text/css">
   <![CDATA[
    .str0 {stroke:#4C05AB;stroke-width:25.11;stroke-miterlimit:22.9256}
    .fil0 {fill:none}
    .fil1 {fill:#FEFEFE}
   ]]>
  </style>
 </defs>
 <g id="图层_x0020_1">
  <metadata id="CorelCorpID_0Corel-Layer"/>
  <g id="_1848856524768">
   <g>
    <g>
     <path class="fil0 str0" d="M12.56 12.56l50.22 0 0 50.22 -50.22 0 0 -50.22zm33.48 117.19l83.71 0 0 -83.71 75.34 0 0 -33.48 -108.82 -0 -0 83.71 -83.71 0 0 108.82 33.48 0 0 -75.34z"/>
     <path id="1" class="fil1" d="M12.56 12.56l50.22 0 0 50.22 -50.22 0 0 -50.22zm33.48 117.19l83.71 0 0 -83.71 75.34 0 0 -33.48 -108.82 -0 -0 83.71 -83.71 0 0 108.82 33.48 0 0 -75.34z"/>
    </g>
    <g>
     <path class="fil0 str0" d="M1184.46 12.56l-50.22 0 0 50.22 50.22 0 0 -50.22zm-33.48 117.19l-83.71 0 0 -83.71 -75.34 0 0 -33.48 108.82 -0 0 83.71 83.71 0 0 108.82 -33.48 0 0 -75.34z"/>
     <path id="1" class="fil1" d="M1184.46 12.56l-50.22 0 0 50.22 50.22 0 0 -50.22zm-33.48 117.19l-83.71 0 0 -83.71 -75.34 0 0 -33.48 108.82 -0 0 83.71 83.71 0 0 108.82 -33.48 0 0 -75.34z"/>
    </g>
   </g>
   <g>
    <g>
     <path class="fil0 str0" d="M12.56 1184.45l50.22 0 0 -50.22 -50.22 0 0 50.22zm33.48 -117.19l83.71 0 0 83.71 75.34 0 0 33.48 -108.82 0 -0 -83.71 -83.71 0 0 -108.82 33.48 0 0 75.34z"/>
     <path id="1" class="fil1" d="M12.56 1184.45l50.22 0 0 -50.22 -50.22 0 0 50.22zm33.48 -117.19l83.71 0 0 83.71 75.34 0 0 33.48 -108.82 0 -0 -83.71 -83.71 0 0 -108.82 33.48 0 0 75.34z"/>
    </g>
    <g>
     <path class="fil0 str0" d="M1184.46 1184.45l-50.22 0 0 -50.22 50.22 0 0 50.22zm-33.48 -117.19l-83.71 0 0 83.71 -75.34 0 0 33.48 108.82 0 0 -83.71 83.71 0 0 -108.82 -33.48 0 0 75.34z"/>
     <path id="1" class="fil1" d="M1184.46 1184.45l-50.22 0 0 -50.22 50.22 0 0 50.22zm-33.48 -117.19l-83.71 0 0 83.71 -75.34 0 0 33.48 108.82 0 0 -83.71 83.71 0 0 -108.82 -33.48 0 0 75.34z"/>
    </g>
   </g>
  </g>
 </g>
</svg>
