<?xml version="1.0" encoding="UTF-8"?>
<!DOCTYPE svg PUBLIC "-//W3C//DTD SVG 1.1//EN" "http://www.w3.org/Graphics/SVG/1.1/DTD/svg11.dtd">
<!-- Creator: CorelDRAW 2020 (64-Bit 评估版) -->
<svg xmlns="http://www.w3.org/2000/svg" xml:space="preserve" width="100.895mm" height="100.894mm" version="1.1" style="shape-rendering:geometricPrecision; text-rendering:geometricPrecision; image-rendering:optimizeQuality; fill-rule:evenodd; clip-rule:evenodd"
viewBox="0 0 1652.54 1652.54"
 xmlns:xlink="http://www.w3.org/1999/xlink"
 xmlns:xodm="http://www.corel.com/coreldraw/odm/2003">
 <defs>
  <style type="text/css">
   <![CDATA[
    .str0 {stroke:#B34B00;stroke-width:34.67;stroke-miterlimit:22.9256}
    .fil0 {fill:none}
    .fil1 {fill:yellow}
   ]]>
  </style>
 </defs>
 <g id="图层_x0020_1">
  <metadata id="CorelCorpID_0Corel-Layer"/>
  <g id="_1848696511424">
   <g>
    <g>
     <path class="fil0 str0" d="M17.34 17.34l69.34 0 0 69.34 -69.34 0 0 -69.34zm46.22 161.79l115.57 0 0 -115.57 104.01 0 0 -46.22 -150.23 -0 -0 115.57 -115.57 0 0 150.23 46.22 0 0 -104.01z"/>
     <path id="1" class="fil1" d="M17.34 17.34l69.34 0 0 69.34 -69.34 0 0 -69.34zm46.22 161.79l115.57 0 0 -115.57 104.01 0 0 -46.22 -150.23 -0 -0 115.57 -115.57 0 0 150.23 46.22 0 0 -104.01z"/>
    </g>
    <g>
     <path class="fil0 str0" d="M1635.21 17.34l-69.34 0 0 69.34 69.34 0 0 -69.34zm-46.22 161.79l-115.57 0 0 -115.57 -104.01 0 0 -46.22 150.23 -0 0 115.57 115.57 0 0 150.23 -46.22 0 0 -104.01z"/>
     <path id="1" class="fil1" d="M1635.21 17.34l-69.34 0 0 69.34 69.34 0 0 -69.34zm-46.22 161.79l-115.57 0 0 -115.57 -104.01 0 0 -46.22 150.23 -0 0 115.57 115.57 0 0 150.23 -46.22 0 0 -104.01z"/>
    </g>
   </g>
   <g>
    <g>
     <path class="fil0 str0" d="M17.34 1635.2l69.34 0 0 -69.34 -69.34 0 0 69.34zm46.22 -161.79l115.57 0 0 115.57 104.01 0 0 46.22 -150.23 0 -0 -115.57 -115.57 0 0 -150.23 46.22 0 0 104.01z"/>
     <path id="1" class="fil1" d="M17.34 1635.2l69.34 0 0 -69.34 -69.34 0 0 69.34zm46.22 -161.79l115.57 0 0 115.57 104.01 0 0 46.22 -150.23 0 -0 -115.57 -115.57 0 0 -150.23 46.22 0 0 104.01z"/>
    </g>
    <g>
     <path class="fil0 str0" d="M1635.21 1635.2l-69.34 0 0 -69.34 69.34 0 0 69.34zm-46.22 -161.79l-115.57 0 0 115.57 -104.01 0 0 46.22 150.23 0 0 -115.57 115.57 0 0 -150.23 -46.22 0 0 104.01z"/>
     <path id="1" class="fil1" d="M1635.21 1635.2l-69.34 0 0 -69.34 69.34 0 0 69.34zm-46.22 -161.79l-115.57 0 0 115.57 -104.01 0 0 46.22 150.23 0 0 -115.57 115.57 0 0 -150.23 -46.22 0 0 104.01z"/>
    </g>
   </g>
  </g>
 </g>
</svg>
